<?xml version="1.0" encoding="UTF-8" standalone="no"?>
<svg
   xmlns:dc="http://purl.org/dc/elements/1.1/"
   xmlns:cc="http://creativecommons.org/ns#"
   xmlns:rdf="http://www.w3.org/1999/02/22-rdf-syntax-ns#"
   xmlns:svg="http://www.w3.org/2000/svg"
   xmlns="http://www.w3.org/2000/svg"
   xmlns:xlink="http://www.w3.org/1999/xlink"
   width="793.70081"
   height="1122.5197"
   viewBox="0 0 210 297"
   version="1.1"
   id="svg906">
  <defs
     id="defs900">
    <linearGradient
       id="linearGradient2103">
      <stop
         style="stop-color:#ff0000;stop-opacity:1;"
         offset="0"
         id="stop2099" />
      <stop
         style="stop-color:#ffdd55;stop-opacity:1"
         offset="1"
         id="stop2101" />
    </linearGradient>
    <linearGradient
       xlink:href="#linearGradient2103"
       id="linearGradient2105"
       x1="92.5"
       y1="247.73738"
       x2="355"
       y2="247.73738"
       gradientUnits="userSpaceOnUse" />
    <linearGradient
       xlink:href="#linearGradient2103"
       id="linearGradient2113"
       x1="280"
       y1="305"
       x2="55"
       y2="305"
       gradientUnits="userSpaceOnUse" />
  </defs>
  <metadata
     id="metadata903">
    <rdf:RDF>
      <cc:Work
         rdf:about="">
        <dc:format>image/svg+xml</dc:format>
        <dc:type
           rdf:resource="http://purl.org/dc/dcmitype/StillImage" />
        <dc:title></dc:title>
      </cc:Work>
    </rdf:RDF>
  </metadata>
  <g
     id="layer1">
    <path
       id="path2051"
       style="opacity:1;fill:url(#linearGradient2113);stroke-width:1.09489;fill-opacity:1"
       d="M 205,155 A 150,150 0 0 0 55,305 150,150 0 0 0 205,455 150,150 0 0 0 355,305 150,150 0 0 0 205,155 Z m 0,75 a 75,75 0 0 1 75,75 75,75 0 0 1 -75,75 75,75 0 0 1 -75,-75 75,75 0 0 1 75,-75 z"
       transform="scale(0.26458333)" />
    <path
       id="path2056"
       style="opacity:1;fill:url(#linearGradient2105);fill-opacity:1;stroke-width:0.821167"
       d="m 355,40.474609 c -41.55,0 -75,33.449998 -75,75.000001 V 305 A 74.999997,74.999997 0 0 1 205,380 74.999997,74.999997 0 0 1 130,305 74.999997,74.999997 0 0 1 204.43164,230.00195 112.5,112.5 0 0 0 92.5,342.5 112.5,112.5 0 0 0 191.92383,454.23633 l -0.0664,0.18555 a 150,150 0 0 0 12.125,0.57421 150,150 0 0 0 0.0137,0 150,150 0 0 0 0.73829,0.004 150,150 0 0 0 0.26562,0 112.5,112.5 0 0 0 0.89258,-0.004 A 150,150 0 0 0 355,305 Z"
       transform="scale(0.26458333)" />
  </g>
</svg>
