<?xml version="1.0" encoding="UTF-8" standalone="no"?>
<svg
   xmlns:dc="http://purl.org/dc/elements/1.1/"
   xmlns:cc="http://creativecommons.org/ns#"
   xmlns:rdf="http://www.w3.org/1999/02/22-rdf-syntax-ns#"
   xmlns:svg="http://www.w3.org/2000/svg"
   xmlns="http://www.w3.org/2000/svg"
   xmlns:sodipodi="http://sodipodi.sourceforge.net/DTD/sodipodi-0.dtd"
   xmlns:inkscape="http://www.inkscape.org/namespaces/inkscape"
   width="793.70081"
   height="1122.5197"
   viewBox="0 0 210 297"
   version="1.1"
   id="svg1434"
   inkscape:export-filename="C:\Users\GAIA\Documents\Business\Web-Dev\logo\diylogo.png"
   inkscape:export-xdpi="164.2"
   inkscape:export-ydpi="164.2"
   inkscape:version="1.0.1 (3bc2e813f5, 2020-09-07)"
   sodipodi:docname="diylogo.svg">
  <defs
     id="defs1428">
    <rect
       x="78.052083"
       y="132.29167"
       width="35.189583"
       height="18.520833"
       id="rect2023" />
    <rect
       x="76.729167"
       y="109.80208"
       width="77.7875"
       height="25.4"
       id="rect2017" />
  </defs>
  <sodipodi:namedview
     id="base"
     pagecolor="#ffffff"
     bordercolor="#666666"
     borderopacity="1.0"
     inkscape:pageopacity="0.0"
     inkscape:pageshadow="2"
     inkscape:zoom="1"
     inkscape:cx="580.68231"
     inkscape:cy="497"
     inkscape:document-units="mm"
     inkscape:current-layer="layer1"
     inkscape:document-rotation="0"
     showgrid="false"
     units="px"
     showborder="false"
     inkscape:snap-smooth-nodes="true"
     inkscape:window-width="1624"
     inkscape:window-height="1024"
     inkscape:window-x="228"
     inkscape:window-y="0"
     inkscape:window-maximized="0" />
  <metadata
     id="metadata1431">
    <rdf:RDF>
      <cc:Work
         rdf:about="">
        <dc:format>image/svg+xml</dc:format>
        <dc:type
           rdf:resource="http://purl.org/dc/dcmitype/StillImage" />
        <dc:title></dc:title>
      </cc:Work>
    </rdf:RDF>
  </metadata>
  <g
     inkscape:label="Layer 1"
     inkscape:groupmode="layer"
     id="layer1">
    <path
       id="path1997"
       style="opacity:0.98;fill:#ff7f2a;stroke-width:0.974026"
       d="M 396.28906 321 A 150 150 0 0 0 259.25391 410 L 270.27734 410 A 140.00001 140.00001 0 0 1 396.26172 331 L 396.26367 331 A 140.00001 140.00001 0 0 1 396.28906 331 A 140.00001 140.00001 0 0 1 522.30078 410 L 533.32422 410 A 150 150 0 0 0 396.28906 321 z M 259.25391 532 A 150 150 0 0 0 396.28906 621 A 150 150 0 0 0 533.32422 532 L 522.30078 532 A 140.00001 140.00001 0 0 1 396.28906 611 A 140.00001 140.00001 0 0 1 270.27734 532 L 259.25391 532 z "
       transform="scale(0.26458333)" />
    <text
       xml:space="preserve"
       id="text2021"
       style="fill:black;fill-opacity:1;line-height:1.25;stroke:none;font-family:sans-serif;font-style:normal;font-weight:normal;font-size:10.58333333px;white-space:pre;shape-inside:url(#rect2023);" />
    <g
       aria-label="DIY"
       transform="scale(1.1844576,0.8442683)"
       id="text2029"
       style="font-style:normal;font-variant:normal;font-weight:normal;font-stretch:normal;font-size:39.2266px;line-height:1.25;font-family:'Kristen ITC';-inkscape-font-specification:'Kristen ITC, Normal';font-variant-ligatures:normal;font-variant-caps:normal;font-variant-numeric:normal;font-variant-east-asian:normal;opacity:0.98;fill:#000000;fill-opacity:1;stroke:none;stroke-width:0.147099">
      <path
         d="m 81.838168,146.73414 q 0,17.62132 -22.7928,17.62132 -1.972822,0 -4.003105,-0.17238 -0.536302,1.64721 -1.877055,1.64721 -0.766144,0 -1.302445,-0.42138 -0.517148,-0.42138 -0.517148,-1.01514 0,0.36392 0.651223,-4.48195 0.651223,-4.86502 0.651223,-10.15141 0,-7.48907 -0.90022,-14.36521 -1.723825,-0.34477 -1.723825,-1.95367 0,-1.11091 1.244985,-1.72383 l -0.03831,-0.2873 q 0,-0.0575 -0.01915,-0.13408 -0.01915,-0.0958 -0.01915,-0.13407 0,-1.64721 1.896208,-1.64721 1.570596,0 1.877054,1.41737 3.983952,-0.7853 7.374141,-0.7853 9.346964,0 14.422671,4.32871 5.075708,4.30957 5.075708,12.25832 z m -4.07972,0.19153 q 0,-6.33984 -3.964798,-9.67257 -3.964798,-3.35188 -11.492168,-3.35188 -2.681506,0 -6.780379,0.78529 0.976834,7.56568 0.976834,15.03559 0,5.5737 -0.708684,10.74518 0.90022,0.0766 2.509124,0.0766 8.580819,0 12.756307,-1.87705 6.703764,-3.04543 6.703764,-11.74117 z"
         style="font-style:normal;font-variant:normal;font-weight:normal;font-stretch:normal;font-size:39.2266px;font-family:'Kristen ITC';-inkscape-font-specification:'Kristen ITC, Normal';font-variant-ligatures:normal;font-variant-caps:normal;font-variant-numeric:normal;font-variant-east-asian:normal;stroke-width:0.147099"
         id="path2033" />
      <path
         d="m 98.271968,162.1528 q 0,1.58975 -1.838746,2.50912 -1.838747,0.93853 -5.228937,0.93853 -3.351882,0 -5.190629,-0.72784 -1.838747,-0.70869 -1.838747,-1.93452 0,-2.01113 1.896208,-2.01113 0.440533,0 1.302445,0.26815 1.340753,0.40223 1.704672,0.47885 0.785298,-7.66145 0.785298,-12.73716 0,-8.23605 -2.145205,-15.03558 -0.842759,0.11492 -1.934515,0.51714 -0.976834,0.34477 -1.283292,0.34477 -0.612915,0 -1.053448,-0.5363 -0.440534,-0.5363 -0.440534,-1.34076 0,-2.77727 5.841853,-2.77727 3.869029,0 6.129156,1.0726 2.145205,1.01514 2.145205,2.68151 0,1.49398 -1.206678,1.49398 -0.287304,0 -1.436521,-0.36392 -1.493982,-0.47884 -2.643199,-0.72784 1.991976,6.93361 1.991976,14.67167 0,4.96079 -0.90022,12.77546 0.746991,-0.21069 2.183512,-0.80445 1.053449,-0.44053 1.551443,-0.44053 0.670376,0 1.130063,0.47884 0.47884,0.49799 0.47884,1.20668 z"
         style="font-style:normal;font-variant:normal;font-weight:normal;font-stretch:normal;font-size:39.2266px;font-family:'Kristen ITC';-inkscape-font-specification:'Kristen ITC, Normal';font-variant-ligatures:normal;font-variant-caps:normal;font-variant-numeric:normal;font-variant-east-asian:normal;stroke-width:0.147099"
         id="path2035" />
      <path
         d="m 127.02154,131.23886 q 0,1.43652 -2.75812,5.5737 -5.17147,7.79553 -11.87524,12.87123 l 0.0383,0.0383 v 2.3942 q 0,1.66637 0.0191,4.06057 0.0192,2.37505 0.0192,3.06458 0,3.83072 -0.34477,5.11401 -0.45969,1.64721 -1.89621,1.64721 -1.76213,0 -1.76213,-2.98796 0,-0.15323 0.0766,-2.70066 0.0766,-2.54743 0.0766,-4.94163 v -4.90333 q -3.04542,-2.81558 -6.55054,-8.98304 -3.869026,-6.857 -3.869026,-10.20888 0,-2.06859 1.915366,-2.06859 1.18752,0 1.57059,0.82361 0.26815,0.5746 0.67038,2.22181 0.45968,1.83875 0.86191,2.87305 2.48997,6.56969 7.25922,11.60709 6.62715,-5.40132 11.53048,-13.96299 0.72783,-1.30244 1.47482,-2.60489 0.65123,-0.95768 1.49399,-0.95768 0.84275,0 1.43652,0.61292 0.61291,0.59376 0.61291,1.41736 z"
         style="font-style:normal;font-variant:normal;font-weight:normal;font-stretch:normal;font-size:39.2266px;font-family:'Kristen ITC';-inkscape-font-specification:'Kristen ITC, Normal';font-variant-ligatures:normal;font-variant-caps:normal;font-variant-numeric:normal;font-variant-east-asian:normal;stroke-width:0.147099"
         id="path2037" />
    </g>
  </g>
</svg>
